<?xml version="1.0" encoding="UTF-8"?>
<svg id="b" data-name="OBJECTS" xmlns="http://www.w3.org/2000/svg" viewBox="0 0 312.2 405.09">
  <g>
    <polyline points="10.14 402.69 1.91 402.69 1.91 356.57 9.14 356.57 23.26 376.34" style="fill: none; stroke: #1a78db; stroke-linecap: round; stroke-linejoin: round; stroke-width: 3.83px;"/>
    <polyline points="9.05 368.63 22.46 387.45 37.65 369.86 37.65 402.29 45.03 402.29 45.03 356.86 36.49 356.86" style="fill: none; stroke: #1a78db; stroke-linecap: round; stroke-linejoin: round; stroke-width: 3.83px;"/>
    <path d="M75.51,403.18c-13.17,0-23.85-10.68-23.85-23.85s10.68-23.85,23.85-23.85,23.85,10.68,23.85,23.85" style="fill: none; stroke: #1a78db; stroke-linecap: round; stroke-linejoin: round; stroke-width: 3.83px;"/>
    <path d="M75.51,363.14c8.93,0,16.2,7.26,16.2,16.2s-7.27,16.2-16.2,16.2-16.2-7.27-16.2-16.2" style="fill: none; stroke: #1a78db; stroke-linecap: round; stroke-linejoin: round; stroke-width: 3.83px;"/>
    <path d="M219.45,403.18c-13.17,0-23.85-10.68-23.85-23.85s10.68-23.85,23.85-23.85,23.85,10.68,23.85,23.85" style="fill: none; stroke: #1a78db; stroke-linecap: round; stroke-linejoin: round; stroke-width: 3.83px;"/>
    <path d="M219.45,363.14c8.93,0,16.2,7.26,16.2,16.2s-7.27,16.2-16.2,16.2-16.2-7.27-16.2-16.2" style="fill: none; stroke: #1a78db; stroke-linecap: round; stroke-linejoin: round; stroke-width: 3.83px;"/>
    <path d="M144.99,371.2c3.33-9.17,12.11-15.71,22.42-15.71,11.24,0,20.66,7.77,23.18,18.24l-7.88,.29c-2.21-6.33-8.23-10.88-15.3-10.88-8.93,0-16.2,7.26-16.2,16.2s7.27,16.2,16.2,16.2c6.42,0,11.98-3.76,14.6-9.19l8.3-.32c-2.89,9.92-12.05,17.16-22.9,17.16-9.05,0-16.93-5.05-20.97-12.48" style="fill: none; stroke: #1a78db; stroke-linecap: round; stroke-linejoin: round; stroke-width: 3.83px;"/>
    <path d="M138.82,388.48s.17-7.93-9.96-11.52c-10.13-3.59-15.94-3.45-15.94-8.5s6.22-5.91,8.45-5.88c3.51,.03,6.47,1.72,7.49,4.58,.6,1.67,.86,4.06,.86,4.06h7.99s.39-14.82-15.79-14.82c-6.23,0-10.12,1.8-12.55,4.02" style="fill: none; stroke: #1a78db; stroke-linecap: round; stroke-linejoin: round; stroke-width: 3.83px;"/>
    <path d="M105.83,371.99s-.35,6.28,9.24,9.6c9.59,3.32,14.42,2.13,15.14,8.29,.72,6.16-10.31,8.11-15.48,3.95-2.97-2.39-3.29-5.34-3.29-5.34h-8.75s1.04,7.73,8.45,11.61c7.41,3.89,14.35,2.21,14.35,2.21" style="fill: none; stroke: #1a78db; stroke-linecap: round; stroke-linejoin: round; stroke-width: 3.83px;"/>
    <polyline points="254.1 357.01 244.38 357.01 258.44 402.76 267.3 402.76 273.03 382.9" style="fill: none; stroke: #1a78db; stroke-linecap: round; stroke-linejoin: round; stroke-width: 3.83px;"/>
    <polyline points="262.86 391.69 273.44 356.76 282.38 356.76 292.24 391.67" style="fill: none; stroke: #1a78db; stroke-linecap: round; stroke-linejoin: round; stroke-width: 3.83px;"/>
    <polyline points="277.51 367.95 287.95 403 296.66 403 310.29 356.9 301.85 356.9 296.55 374.38" style="fill: none; stroke: #1a78db; stroke-linecap: round; stroke-linejoin: round; stroke-width: 3.83px;"/>
  </g>
  <g>
    <line x1="1.91" y1="341.08" x2="310.13" y2="341.08" style="fill: none; stroke: #1a78db; stroke-linecap: round; stroke-linejoin: round; stroke-width: 2.39px;"/>
    <path d="M68.41,323.86c-1.88,2.81-5.22,4.65-8.6,4.5s-6.64-2.4-7.75-5.59c-1.11-3.19,.15-7.12,3.04-8.88,2.14-1.3,4.79-1.37,7.28-1.23,.45-4.06,3.44-8.05,7.05-9.97,3.6-1.92,8.16-1.93,11.77-.03,3.62,1.9,6.19,5.65,6.66,9.71,0-.31,.02-.61,.02-.92,2.72-1.91,6.53-.42,8.59,2.19s1.87,6.66-.27,9.21c-2.14,2.55-5.93,3.46-9.07,2.36-2.64,2.07-6.14,3.04-9.49,2.83-3.35-.21-6.87-1.8-9.23-4.18Z" style="fill: none; stroke: #1a78db; stroke-linecap: round; stroke-linejoin: round; stroke-width: 2.39px;"/>
    <path d="M62.72,274.14c1.3,8.36,.22,17.07-3.06,24.86" style="fill: none; stroke: #1a78db; stroke-linecap: round; stroke-linejoin: round; stroke-width: 2.39px;"/>
    <path d="M35.06,274.8c3.54,11.8,11.37,22.25,21.7,28.97,.53,2.89,.83,5.86,.76,8.79" style="fill: none; stroke: #1a78db; stroke-linecap: round; stroke-linejoin: round; stroke-width: 2.39px;"/>
    <path d="M63.05,285.87c2.93-.93,5.42-3.17,6.65-5.99" style="fill: none; stroke: #1a78db; stroke-linecap: round; stroke-linejoin: round; stroke-width: 2.39px;"/>
    <path d="M40.75,287.13c2.41-1.54,3.94-4.38,3.89-7.25" style="fill: none; stroke: #1a78db; stroke-linecap: round; stroke-linejoin: round; stroke-width: 2.39px;"/>
    <path d="M45.59,294.16c-2.28,1.72-5.5,2.09-8.11,.94" style="fill: none; stroke: #1a78db; stroke-linecap: round; stroke-linejoin: round; stroke-width: 2.39px;"/>
    <path d="M52.88,323.6c-2.55,3.57-7.69,5.04-11.74,3.34-4.05-1.69-6.63-6.37-5.88-10.7-3.68,1.42-7.94,1.36-11.45-.44-3.51-1.8-6.15-5.29-6.71-9.19-.57-3.9,1.03-8.09,4.16-10.48-3.65-1.09-6.74-4.35-7.21-8.12-.47-3.78,1.47-7.75,4.74-9.7-5.12-4.24-6.61-12.18-3.99-18.3,2.61-6.11,9.49-10.1,16.09-9.33,6.6,.77,12.38,6.23,13.52,12.77,3.36-7.02,11.69-10.73,19.39-9.53,7.69,1.2,14.21,7.85,15.26,15.56,2.07-1.22,4.74-.81,6.71,.57,1.97,1.38,3.02,3.95,2.58,6.31" style="fill: none; stroke: #1a78db; stroke-linecap: round; stroke-linejoin: round; stroke-width: 2.39px;"/>
    <path d="M81.21,302.83c-.67-1.26-.79-2.8-.32-4.14,.47-1.34,1.53-2.47,2.84-3.03-2.83-2.92-4.16-6.87-3.21-10.82s4.03-7.33,7.89-8.63c-.65-3.85,.14-7.89,2.76-10.78,2.62-2.89,7.14-4.12,10.64-2.41,2.65,1.3,4.41,4.04,5.01,6.94,.6,2.89,.17,5.91-.67,8.75,2.61,1.84,4.38,4.75,4.61,7.94,.23,3.19-1.04,6.45-3.36,8.64,1.73,.83,2.82,2.47,3,4.37,.18,1.91-.69,3.88-2.23,5.03,2.75,1.65,4.71,4.5,4.98,7.7,.27,3.2-1.08,6.5-3.52,8.59-1.63,1.39-4.03,2.24-5.91,1.23-.44,2.68-2.41,4.65-5.03,5.39-2.61,.75-5.62-.14-7.41-2.19" style="fill: none; stroke: #1a78db; stroke-linecap: round; stroke-linejoin: round; stroke-width: 2.39px;"/>
    <path d="M97.41,278.18l-5.36,32.95" style="fill: none; stroke: #1a78db; stroke-linecap: round; stroke-linejoin: round; stroke-width: 2.39px;"/>
    <path d="M48.67,326.75v13.85" style="fill: none; stroke: #1a78db; stroke-linecap: round; stroke-linejoin: round; stroke-width: 2.39px;"/>
    <path d="M60.15,328.19v12.26" style="fill: none; stroke: #1a78db; stroke-linecap: round; stroke-linejoin: round; stroke-width: 2.39px;"/>
    <path d="M72.74,327.07v13.85" style="fill: none; stroke: #1a78db; stroke-linecap: round; stroke-linejoin: round; stroke-width: 2.39px;"/>
    <line x1="87.41" y1="325.79" x2="87.41" y2="341.08" style="fill: none; stroke: #1a78db; stroke-linecap: round; stroke-linejoin: round; stroke-width: 2.39px;"/>
    <line x1="95.06" y1="328.19" x2="95.06" y2="341.08" style="fill: none; stroke: #1a78db; stroke-linecap: round; stroke-linejoin: round; stroke-width: 2.39px;"/>
    <path d="M101.44,284.67c-.78,3.02-2.93,5.66-5.73,7.03" style="fill: none; stroke: #1a78db; stroke-linecap: round; stroke-linejoin: round; stroke-width: 2.39px;"/>
    <path d="M88.84,297.74c.31,2.3,2.19,4.31,4.48,4.76" style="fill: none; stroke: #1a78db; stroke-linecap: round; stroke-linejoin: round; stroke-width: 2.39px;"/>
    <path d="M101.29,316.5c2.64-.38,5.04-2.17,6.16-4.59" style="fill: none; stroke: #1a78db; stroke-linecap: round; stroke-linejoin: round; stroke-width: 2.39px;"/>
    <path d="M45.8,260.4c5.52-21.77,10.36-43.72,14.52-65.79,.11,0,.2-.16,.31-.16h3.54c1.76,7.48,3.7,14.82,5.45,22.3" style="fill: none; stroke: #1a78db; stroke-linecap: round; stroke-linejoin: round; stroke-width: 2.39px;"/>
    <path d="M101.28,192.53h-34.11c1.16,5.1,2.27,9.94,4.24,14.79,.11,0,.44,.04,.54,.04h19.74" style="fill: none; stroke: #1a78db; stroke-linecap: round; stroke-linejoin: round; stroke-width: 2.39px;"/>
    <path d="M60.03,194.29c.05-1.28,.07-2.55,.12-3.83v-3.99" style="fill: none; stroke: #1a78db; stroke-linecap: round; stroke-linejoin: round; stroke-width: 2.39px;"/>
    <path d="M62.38,163.2v7.49" style="fill: none; stroke: #1a78db; stroke-linecap: round; stroke-linejoin: round; stroke-width: 2.39px;"/>
    <path d="M62.4,186.78c-2.53,.25-5.07-1.8-5.36-4.32-.29-2.53,1.72-5.1,4.25-5.42" style="fill: none; stroke: #1a78db; stroke-linecap: round; stroke-linejoin: round; stroke-width: 2.39px;"/>
    <path d="M89.76,128.79c1.11-1.4,.82-3.7-.6-4.79-1.42-1.09-3.69-.81-4.8,.6-2.8,3.54,2.75,7.55,5.4,4.19Z" style="fill: none; stroke: #1a78db; stroke-linecap: round; stroke-linejoin: round; stroke-width: 2.39px;"/>
    <path d="M68.08,192.97c-1.83-2.78-3.66-5.6-4.92-8.68-1.25-3.09-1.91-6.5-1.3-9.78,1.06-5.69,5.6-9.96,9.51-14.22,4.31-4.69,8.2-10.55,11.4-16.06h.32" style="fill: none; stroke: #1a78db; stroke-linecap: round; stroke-linejoin: round; stroke-width: 2.39px;"/>
    <path d="M86.94,104.76v18.33" style="fill: none; stroke: #1a78db; stroke-linecap: round; stroke-linejoin: round; stroke-width: 2.39px;"/>
    <path d="M82.33,144.88c1.93-4.69,2.9-9.77,2.83-14.84" style="fill: none; stroke: #1a78db; stroke-linecap: round; stroke-linejoin: round; stroke-width: 2.39px;"/>
    <path d="M91.42,144.88c-1.93-4.69-2.9-9.77-2.83-14.84" style="fill: none; stroke: #1a78db; stroke-linecap: round; stroke-linejoin: round; stroke-width: 2.39px;"/>
    <path d="M106.2,192.01c1.83-2.78,3.03-4.63,4.29-7.72,1.25-3.09,1.91-6.5,1.3-9.78-1.06-5.69-5.6-9.96-9.51-14.22-4.31-4.69-8.2-10.55-11.4-16.06h-.32" style="fill: none; stroke: #1a78db; stroke-linecap: round; stroke-linejoin: round; stroke-width: 2.39px;"/>
    <path d="M114.05,167.06c3.23-3.12,10.07-8.82,14.58-14.83" style="fill: none; stroke: #1a78db; stroke-linecap: round; stroke-linejoin: round; stroke-width: 2.39px;"/>
    <path d="M117.44,189.33c-1.83-2.46-1.6-1.68-2.86-4.42" style="fill: none; stroke: #1a78db; stroke-linecap: round; stroke-linejoin: round; stroke-width: 2.39px;"/>
    <path d="M150.16,189.33c1.83-2.46,3.67-4.95,4.92-7.69,1.25-2.73,1.91-5.75,1.3-8.65-1.06-5.03-5.6-8.81-9.51-12.59-2.68-2.59-5.2-5.57-7.5-8.63" style="fill: none; stroke: #1a78db; stroke-linecap: round; stroke-linejoin: round; stroke-width: 2.39px;"/>
    <line x1="90.54" y1="144.23" x2="83.1" y2="144.23" style="fill: none; stroke: #1a78db; stroke-linecap: round; stroke-linejoin: round; stroke-width: 2.39px;"/>
    <line x1="90.45" y1="111.58" x2="83.2" y2="108.26" style="fill: none; stroke: #1a78db; stroke-linecap: round; stroke-linejoin: round; stroke-width: 2.39px;"/>
    <g>
      <path d="M175.2,13.15c.55-.7,.41-1.84-.3-2.38-.7-.54-1.84-.4-2.39,.3-1.39,1.76,1.37,3.75,2.69,2.08Z" style="fill: none; stroke: #1a78db; stroke-linecap: round; stroke-linejoin: round; stroke-width: 2.39px;"/>
      <path d="M164.41,45.07c-.91-1.38-1.82-2.78-2.45-4.32-.62-1.54-.95-3.23-.64-4.86,.53-2.83,2.79-4.95,4.73-7.07,2.14-2.34,4.08-5.25,5.67-7.99h.16" style="fill: none; stroke: #1a78db; stroke-linecap: round; stroke-linejoin: round; stroke-width: 2.39px;"/>
      <path d="M173.8,1.2V10.31" style="fill: none; stroke: #1a78db; stroke-linecap: round; stroke-linejoin: round; stroke-width: 2.39px;"/>
      <path d="M171.5,21.15c.96-2.33,1.44-4.86,1.41-7.38" style="fill: none; stroke: #1a78db; stroke-linecap: round; stroke-linejoin: round; stroke-width: 2.39px;"/>
      <path d="M176.02,21.15c-.96-2.33-1.44-4.86-1.41-7.38" style="fill: none; stroke: #1a78db; stroke-linecap: round; stroke-linejoin: round; stroke-width: 2.39px;"/>
      <path d="M183.37,44.6c.91-1.38,1.51-2.31,2.13-3.84,.62-1.54,.95-3.23,.64-4.86-.53-2.83-2.79-4.95-4.73-7.07-2.14-2.34-4.08-5.25-5.67-7.99h-.16" style="fill: none; stroke: #1a78db; stroke-linecap: round; stroke-linejoin: round; stroke-width: 2.39px;"/>
      <line x1="175.59" y1="20.83" x2="171.89" y2="20.83" style="fill: none; stroke: #1a78db; stroke-linecap: round; stroke-linejoin: round; stroke-width: 2.39px;"/>
      <line x1="175.54" y1="4.59" x2="171.93" y2="2.93" style="fill: none; stroke: #1a78db; stroke-linecap: round; stroke-linejoin: round; stroke-width: 2.39px;"/>
    </g>
    <g>
      <path d="M241.77,124.96c1.02-1.26,.75-3.31-.55-4.29-1.3-.98-3.38-.72-4.4,.54-2.56,3.17,2.51,6.76,4.94,3.76Z" style="fill: none; stroke: #1a78db; stroke-linecap: round; stroke-linejoin: round; stroke-width: 2.39px;"/>
      <path d="M221.93,182.47c-1.68-2.49-3.35-5.01-4.5-7.78s-1.74-5.82-1.19-8.76c.97-5.1,5.12-8.92,8.7-12.74,3.94-4.21,7.5-9.46,10.43-14.39h.29" style="fill: none; stroke: #1a78db; stroke-linecap: round; stroke-linejoin: round; stroke-width: 2.39px;"/>
      <path d="M239.18,103.42v16.43" style="fill: none; stroke: #1a78db; stroke-linecap: round; stroke-linejoin: round; stroke-width: 2.39px;"/>
      <path d="M234.97,139.37c1.77-4.2,2.65-8.75,2.59-13.29" style="fill: none; stroke: #1a78db; stroke-linecap: round; stroke-linejoin: round; stroke-width: 2.39px;"/>
      <path d="M243.28,139.37c-1.77-4.2-2.65-8.75-2.59-13.29" style="fill: none; stroke: #1a78db; stroke-linecap: round; stroke-linejoin: round; stroke-width: 2.39px;"/>
      <path d="M256.8,181.61c1.68-2.49,2.78-4.15,3.92-6.92s1.74-5.82,1.19-8.76c-.97-5.1-5.12-8.92-8.7-12.74-3.94-4.21-7.5-9.46-10.43-14.39h-.29" style="fill: none; stroke: #1a78db; stroke-linecap: round; stroke-linejoin: round; stroke-width: 2.39px;"/>
      <line x1="242.48" y1="138.79" x2="235.67" y2="138.79" style="fill: none; stroke: #1a78db; stroke-linecap: round; stroke-linejoin: round; stroke-width: 2.39px;"/>
      <line x1="242.39" y1="109.54" x2="235.76" y2="106.55" style="fill: none; stroke: #1a78db; stroke-linecap: round; stroke-linejoin: round; stroke-width: 2.39px;"/>
    </g>
    <g>
      <path d="M200,175.03c.81-1.03,.6-2.7-.44-3.5-1.03-.8-2.7-.59-3.51,.44-2.05,2.58,2.01,5.51,3.95,3.06Z" style="fill: none; stroke: #1a78db; stroke-linecap: round; stroke-linejoin: round; stroke-width: 2.39px;"/>
      <path d="M184.17,221.92c-1.34-2.03-2.68-4.09-3.59-6.34-.92-2.26-1.39-4.75-.95-7.14,.77-4.16,4.09-7.27,6.95-10.39,3.15-3.43,5.99-7.71,8.33-11.73h.23" style="fill: none; stroke: #1a78db; stroke-linecap: round; stroke-linejoin: round; stroke-width: 2.39px;"/>
      <path d="M197.94,157.48v13.39" style="fill: none; stroke: #1a78db; stroke-linecap: round; stroke-linejoin: round; stroke-width: 2.39px;"/>
      <path d="M194.58,186.78c1.41-3.42,2.12-7.14,2.06-10.84" style="fill: none; stroke: #1a78db; stroke-linecap: round; stroke-linejoin: round; stroke-width: 2.39px;"/>
      <path d="M201.21,186.78c-1.41-3.42-2.12-7.14-2.06-10.84" style="fill: none; stroke: #1a78db; stroke-linecap: round; stroke-linejoin: round; stroke-width: 2.39px;"/>
      <path d="M212.01,221.21c1.34-2.03,2.22-3.39,3.13-5.64,.92-2.26,1.39-4.75,.95-7.14-.77-4.16-4.09-7.27-6.95-10.39-3.15-3.43-5.99-7.71-8.33-11.73h-.23" style="fill: none; stroke: #1a78db; stroke-linecap: round; stroke-linejoin: round; stroke-width: 2.39px;"/>
      <line x1="200.57" y1="186.31" x2="195.14" y2="186.31" style="fill: none; stroke: #1a78db; stroke-linecap: round; stroke-linejoin: round; stroke-width: 2.39px;"/>
      <line x1="200.5" y1="162.46" x2="195.21" y2="160.03" style="fill: none; stroke: #1a78db; stroke-linecap: round; stroke-linejoin: round; stroke-width: 2.39px;"/>
    </g>
    <path d="M137.11,137.09c1.11-1.4,.82-3.7-.6-4.79-1.42-1.09-3.69-.8-4.8,.6-2.8,3.54,2.75,7.55,5.4,4.19Z" style="fill: none; stroke: #1a78db; stroke-linecap: round; stroke-linejoin: round; stroke-width: 2.39px;"/>
    <path d="M134.29,113.06v18.33" style="fill: none; stroke: #1a78db; stroke-linecap: round; stroke-linejoin: round; stroke-width: 2.39px;"/>
    <line x1="137.79" y1="119.88" x2="130.54" y2="116.55" style="fill: none; stroke: #1a78db; stroke-linecap: round; stroke-linejoin: round; stroke-width: 2.39px;"/>
    <path d="M105.85,187.77c.86-1.08,.63-2.85-.46-3.69-1.09-.84-2.85-.62-3.71,.46-2.16,2.73,2.12,5.82,4.17,3.23Z" style="fill: none; stroke: #1a78db; stroke-linecap: round; stroke-linejoin: round; stroke-width: 2.39px;"/>
    <path d="M103.67,169.23v14.14" style="fill: none; stroke: #1a78db; stroke-linecap: round; stroke-linejoin: round; stroke-width: 2.39px;"/>
    <line x1="106.37" y1="174.5" x2="100.78" y2="171.93" style="fill: none; stroke: #1a78db; stroke-linecap: round; stroke-linejoin: round; stroke-width: 2.39px;"/>
    <path d="M68.69,239.92c.86-1.08,.63-2.85-.46-3.69-1.09-.84-2.85-.62-3.71,.46-2.16,2.73,2.12,5.82,4.17,3.23Z" style="fill: none; stroke: #1a78db; stroke-linecap: round; stroke-linejoin: round; stroke-width: 2.39px;"/>
    <path d="M66.51,221.38v14.14" style="fill: none; stroke: #1a78db; stroke-linecap: round; stroke-linejoin: round; stroke-width: 2.39px;"/>
    <line x1="69.22" y1="226.64" x2="63.62" y2="224.07" style="fill: none; stroke: #1a78db; stroke-linecap: round; stroke-linejoin: round; stroke-width: 2.39px;"/>
    <line x1="128.63" y1="152.23" x2="139.71" y2="152.23" style="fill: none; stroke: #1a78db; stroke-linecap: round; stroke-linejoin: round; stroke-width: 2.39px;"/>
    <path d="M150.1,219.88v-28.94c0-.4,.06-1.04,.06-1.43h-32.1c0,.16,.12,.32,.12,.48v29.68l31.92,.22Z" style="fill: none; stroke: #1a78db; stroke-linecap: round; stroke-linejoin: round; stroke-width: 2.39px;"/>
    <path d="M102.19,189.32c-.18,3.21-1.67,6.21-3.49,8.86-1.82,2.65-4,5.04-5.84,7.68-1.83,2.64-3.34,5.63-3.55,8.84-.21,3.21,1.08,6.66,3.81,8.35l20.02,.04" style="fill: none; stroke: #1a78db; stroke-linecap: round; stroke-linejoin: round; stroke-width: 2.39px;"/>
    <path d="M118.05,214.4c-.21-3.21-1.8-5.9-3.64-8.54-1.83-2.64-4.01-5.03-5.84-7.68s-3.31-5.65-3.49-8.86" style="fill: none; stroke: #1a78db; stroke-linecap: round; stroke-linejoin: round; stroke-width: 2.39px;"/>
    <path d="M65.12,240.39c-.39,5.48-5.22,9.38-8.58,13.23" style="fill: none; stroke: #1a78db; stroke-linecap: round; stroke-linejoin: round; stroke-width: 2.39px;"/>
    <path d="M79.87,266.51c5.81-9.9-11.2-16.99-11.85-26.13" style="fill: none; stroke: #1a78db; stroke-linecap: round; stroke-linejoin: round; stroke-width: 2.39px;"/>
    <line x1="112.2" y1="230.51" x2="156.67" y2="230.51" style="fill: none; stroke: #1a78db; stroke-linecap: round; stroke-linejoin: round; stroke-width: 2.39px;"/>
    <path d="M111.97,230.74c1.12,1.83,1.89,4.11,2.26,6.22h39.22c.72-2.31,1.93-4.37,3.34-6.34" style="fill: none; stroke: #1a78db; stroke-linecap: round; stroke-linejoin: round; stroke-width: 2.39px;"/>
    <path d="M71.66,207.08c-.48,5.79-1.4,11.54-2.73,17.19" style="fill: none; stroke: #1a78db; stroke-linecap: round; stroke-linejoin: round; stroke-width: 2.39px;"/>
    <path d="M66.41,233.62h26.66" style="fill: none; stroke: #1a78db; stroke-linecap: round; stroke-linejoin: round; stroke-width: 2.39px;"/>
    <path d="M68.81,243.87c.12,.04,.23,.1,.35,.14h7.82" style="fill: none; stroke: #1a78db; stroke-linecap: round; stroke-linejoin: round; stroke-width: 2.39px;"/>
    <line x1="82.19" y1="244.26" x2="111.99" y2="244.26" style="fill: none; stroke: #1a78db; stroke-linecap: round; stroke-linejoin: round; stroke-width: 2.39px;"/>
    <path d="M93.53,223.58c.04,.16,.09,.32,.13,.47v18.18" style="fill: none; stroke: #1a78db; stroke-linecap: round; stroke-linejoin: round; stroke-width: 2.39px;"/>
    <path d="M94.14,228.24h17.82" style="fill: none; stroke: #1a78db; stroke-linecap: round; stroke-linejoin: round; stroke-width: 2.39px;"/>
    <path d="M94.27,240.2c.08-.04,.15-.09,.23-.13h17.11" style="fill: none; stroke: #1a78db; stroke-linecap: round; stroke-linejoin: round; stroke-width: 2.39px;"/>
    <path d="M99.76,232.42v6.71" style="fill: none; stroke: #1a78db; stroke-linecap: round; stroke-linejoin: round; stroke-width: 2.39px;"/>
    <path d="M106.82,232.42v6.71" style="fill: none; stroke: #1a78db; stroke-linecap: round; stroke-linejoin: round; stroke-width: 2.39px;"/>
    <path d="M93.4,224.95c-3.11,1.59-4.5,4.41-5.23,7.83-.03,.14-.06,.29-.09,.43,.32-2.84-1.12-5.8-3.55-7.29s-5.73-1.44-8.11,.13c-2.38,1.57-3.73,4.57-3.32,7.4-.45-1.39-.82-2.76-1.27-4.15" style="fill: none; stroke: #1a78db; stroke-linecap: round; stroke-linejoin: round; stroke-width: 2.39px;"/>
    <path d="M134.4,228.76c-.03,.14-.06,.29-.09,.43,.32-2.84-1.12-5.8-3.55-7.29s-5.73-1.44-8.11,.13c-2.38,1.57-3.73,4.57-3.32,7.4" style="fill: none; stroke: #1a78db; stroke-linecap: round; stroke-linejoin: round; stroke-width: 2.39px;"/>
    <path d="M149.73,228.76c-.03,.14-.06,.29-.09,.43,.32-2.84-1.12-5.8-3.55-7.29s-5.73-1.44-8.11,.13c-2.38,1.57-3.73,4.57-3.32,7.4" style="fill: none; stroke: #1a78db; stroke-linecap: round; stroke-linejoin: round; stroke-width: 2.39px;"/>
    <path d="M156.79,228.76c-.01,.14-.03,.29-.04,.43,.15-2.84-.51-5.8-1.63-7.29-1.11-1.49-2.62-1.44-3.72,.13-1.09,1.57-1.71,4.57-1.52,7.4" style="fill: none; stroke: #1a78db; stroke-linecap: round; stroke-linejoin: round; stroke-width: 2.39px;"/>
    <path d="M119.08,228.76c-.01,.14-.03,.29-.04,.43,.15-2.84-.51-5.8-1.63-7.29-1.11-1.49-2.62-1.44-3.72,.13-1.09,1.57-1.71,4.57-1.52,7.4" style="fill: none; stroke: #1a78db; stroke-linecap: round; stroke-linejoin: round; stroke-width: 2.39px;"/>
    <path d="M191,153.01c-.03,.14,.53-5.39-3.89-7.86-2.65-1.48-6.18-1.16-8.57,.4-2.38,1.57-3.73,4.57-3.32,7.4" style="fill: none; stroke: #1a78db; stroke-linecap: round; stroke-linejoin: round; stroke-width: 2.39px;"/>
    <path d="M170.74,153.01c-.03,.14,.53-5.39-3.89-7.86-2.65-1.48-6.18-1.16-8.57,.4-2.38,1.57-3.73,4.57-3.32,7.4" style="fill: none; stroke: #1a78db; stroke-linecap: round; stroke-linejoin: round; stroke-width: 2.39px;"/>
    <path d="M202.35,152.28c-.01,.14-.03,.29-.04,.43,.15-2.84-.51-5.8-1.63-7.29-1.11-1.49-2.62-1.44-3.72,.13-1.09,1.57-1.71,4.57-1.52,7.4" style="fill: none; stroke: #1a78db; stroke-linecap: round; stroke-linejoin: round; stroke-width: 2.39px;"/>
    <path d="M207.01,174.33c-.01,.14-.03,.29-.04,.43,.15-2.84-.51-5.8-1.63-7.29-1.11-1.49-2.62-1.44-3.72,.13" style="fill: none; stroke: #1a78db; stroke-linecap: round; stroke-linejoin: round; stroke-width: 2.39px;"/>
    <path d="M150.29,152.28c-.01,.14-.03,.29-.04,.43,.15-2.84-.51-5.8-1.63-7.29s-2.62-1.44-3.72,.13c-1.09,1.57-1.71,4.57-1.52,7.4" style="fill: none; stroke: #1a78db; stroke-linecap: round; stroke-linejoin: round; stroke-width: 2.39px;"/>
    <path d="M256.44,226.85c-.03,.14,.5-5.39-3.64-7.86-2.47-1.48-5.78-1.16-8,.4-2.23,1.57-3.49,4.57-3.1,7.4" style="fill: none; stroke: #1a78db; stroke-linecap: round; stroke-linejoin: round; stroke-width: 2.39px;"/>
    <path d="M237.51,226.85c-.03,.14,.5-5.39-3.64-7.86-2.47-1.48-5.78-1.16-8,.4-2.23,1.57-3.49,4.57-3.1,7.4" style="fill: none; stroke: #1a78db; stroke-linecap: round; stroke-linejoin: round; stroke-width: 2.39px;"/>
    <path d="M267.03,226.12c-.01,.14-.03,.29-.04,.43,.14-2.84-.48-5.8-1.52-7.29-1.04-1.49-2.45-1.44-3.47,.13-1.02,1.57-1.6,4.57-1.42,7.4" style="fill: none; stroke: #1a78db; stroke-linecap: round; stroke-linejoin: round; stroke-width: 2.39px;"/>
    <path d="M218.4,226.12c-.01,.14-.03,.29-.04,.43,.14-2.84-.48-5.8-1.52-7.29-1.04-1.49-2.45-1.44-3.47,.13-1.02,1.57-1.6,4.57-1.42,7.4" style="fill: none; stroke: #1a78db; stroke-linecap: round; stroke-linejoin: round; stroke-width: 2.39px;"/>
    <path d="M206.47,247.97c-.02,.07,.27-2.72-1.96-3.97-1.34-.75-3.12-.59-4.32,.2s-1.88,2.31-1.68,3.73" style="fill: none; stroke: #1a78db; stroke-linecap: round; stroke-linejoin: round; stroke-width: 2.39px;"/>
    <path d="M195.36,247.97c-.02,.07,.27-2.72-1.96-3.97-1.34-.75-3.12-.59-4.32,.2s-1.88,2.31-1.68,3.73" style="fill: none; stroke: #1a78db; stroke-linecap: round; stroke-linejoin: round; stroke-width: 2.39px;"/>
    <path d="M214.16,247.58c0,.07-.01,.15-.02,.22,.07-1.43-.26-2.93-.82-3.68-.56-.75-1.32-.73-1.88,.06-.55,.79-.86,2.31-.77,3.73" style="fill: none; stroke: #1a78db; stroke-linecap: round; stroke-linejoin: round; stroke-width: 2.39px;"/>
    <path d="M184.26,247.58c0,.07-.01,.15-.02,.22,.07-1.43-.26-2.93-.82-3.68-.56-.75-1.32-.73-1.88,.06-.55,.79-.86,2.31-.77,3.73" style="fill: none; stroke: #1a78db; stroke-linecap: round; stroke-linejoin: round; stroke-width: 2.39px;"/>
    <path d="M189.74,257.31c-.02,.09,.33-3.36-2.43-4.9-1.65-.92-3.85-.73-5.34,.25s-2.33,2.85-2.07,4.61" style="fill: none; stroke: #1a78db; stroke-linecap: round; stroke-linejoin: round; stroke-width: 2.39px;"/>
    <path d="M202.67,257.31c-.02,.09,.33-3.36-2.43-4.9-1.65-.92-3.85-.73-5.34,.25-1.49,.98-2.33,2.85-2.07,4.61" style="fill: none; stroke: #1a78db; stroke-linecap: round; stroke-linejoin: round; stroke-width: 2.39px;"/>
    <path d="M196.53,269.47c-.03,.15,.56-5.67-4.09-8.27-2.78-1.55-6.5-1.22-9.01,.43s-3.93,4.81-3.49,7.78" style="fill: none; stroke: #1a78db; stroke-linecap: round; stroke-linejoin: round; stroke-width: 2.39px;"/>
    <path d="M216.75,269.47c-.03,.15,.56-5.67-4.09-8.27-2.78-1.55-6.5-1.22-9.01,.43s-3.93,4.81-3.49,7.78" style="fill: none; stroke: #1a78db; stroke-linecap: round; stroke-linejoin: round; stroke-width: 2.39px;"/>
    <path d="M215.92,257.31c-.02,.09,.34-3.36-2.51-4.9-1.7-.92-3.98-.73-5.52,.25s-2.4,2.85-2.14,4.61" style="fill: none; stroke: #1a78db; stroke-linecap: round; stroke-linejoin: round; stroke-width: 2.39px;"/>
    <path d="M150.29,163.28c-.01,.14-.03,.29-.04,.43,.15-2.84-.51-5.8-1.63-7.29s-2.62-1.44-3.72,.13" style="fill: none; stroke: #1a78db; stroke-linecap: round; stroke-linejoin: round; stroke-width: 2.39px;"/>
    <path d="M191,164.05c-.03,.14,.53-5.39-3.89-7.86-2.65-1.48-6.18-1.16-8.57,.4-2.38,1.57-3.73,4.57-3.32,7.4" style="fill: none; stroke: #1a78db; stroke-linecap: round; stroke-linejoin: round; stroke-width: 2.39px;"/>
    <path d="M170.74,164.05c-.03,.14,.53-5.39-3.89-7.86-2.65-1.48-6.18-1.16-8.57,.4-2.38,1.57-3.73,4.57-3.32,7.4" style="fill: none; stroke: #1a78db; stroke-linecap: round; stroke-linejoin: round; stroke-width: 2.39px;"/>
    <path d="M245.38,217.88c-.02,.1,.37-3.79-2.73-5.52-1.86-1.04-4.34-.82-6.02,.28-1.67,1.1-2.62,3.21-2.33,5.2" style="fill: none; stroke: #1a78db; stroke-linecap: round; stroke-linejoin: round; stroke-width: 2.39px;"/>
    <path d="M258.93,217.88c-.02,.1,.37-3.79-2.74-5.52-1.86-1.04-4.34-.82-6.02,.28-1.67,1.1-2.62,3.21-2.33,5.2" style="fill: none; stroke: #1a78db; stroke-linecap: round; stroke-linejoin: round; stroke-width: 2.39px;"/>
    <path d="M231.15,217.88c-.02,.1,.37-3.79-2.73-5.52-1.86-1.04-4.34-.82-6.02,.28-1.67,1.1-2.62,3.21-2.33,5.2" style="fill: none; stroke: #1a78db; stroke-linecap: round; stroke-linejoin: round; stroke-width: 2.39px;"/>
    <path d="M191,174.45c-.03,.14,.53-5.39-3.89-7.86-2.65-1.48-6.18-1.16-8.57,.4-2.38,1.57-3.73,4.57-3.32,7.4" style="fill: none; stroke: #1a78db; stroke-linecap: round; stroke-linejoin: round; stroke-width: 2.39px;"/>
    <path d="M170.74,174.45c-.03,.14,.53-5.39-3.89-7.86-2.65-1.48-6.18-1.16-8.57,.4" style="fill: none; stroke: #1a78db; stroke-linecap: round; stroke-linejoin: round; stroke-width: 2.39px;"/>
    <path d="M75.85,251.97c1.36-3.76,2.62-7.55,3.78-11.37,2.17,6.44,4.34,12.9,6.51,19.34" style="fill: none; stroke: #1a78db; stroke-linecap: round; stroke-linejoin: round; stroke-width: 2.39px;"/>
    <path d="M86.24,260.64c.38-1.48,1-2.95,2.08-4.03,1.08-1.08,2.69-1.72,4.18-1.36,1.14,.28,2.08,1.1,2.73,2.07,.65,.97,1.06,2.08,1.44,3.19" style="fill: none; stroke: #1a78db; stroke-linecap: round; stroke-linejoin: round; stroke-width: 2.39px;"/>
    <path d="M99.24,260.64c.38-1.48,1-2.95,2.08-4.03,1.08-1.08,2.69-1.72,4.18-1.36,1.14,.28,2.08,1.1,2.73,2.07,.65,.97,1.06,2.08,1.44,3.19" style="fill: none; stroke: #1a78db; stroke-linecap: round; stroke-linejoin: round; stroke-width: 2.39px;"/>
    <path d="M92.2,253.77c.38-1.48,1-2.95,2.08-4.03s2.69-1.72,4.18-1.36c1.14,.28,2.08,1.1,2.73,2.07,.65,.97,1.06,2.08,1.44,3.19" style="fill: none; stroke: #1a78db; stroke-linecap: round; stroke-linejoin: round; stroke-width: 2.39px;"/>
    <path d="M104.58,253.77c.38-1.48,1-2.95,2.08-4.03s2.69-1.72,4.18-1.36" style="fill: none; stroke: #1a78db; stroke-linecap: round; stroke-linejoin: round; stroke-width: 2.39px;"/>
    <path d="M84.51,253.34c.25-1.48,.65-2.95,1.36-4.03s1.77-1.72,2.74-1.36c.75,.28,1.36,1.1,1.79,2.07,.43,.97,.69,2.08,.94,3.19" style="fill: none; stroke: #1a78db; stroke-linecap: round; stroke-linejoin: round; stroke-width: 2.39px;"/>
    <path d="M82.82,266.6c.25-1.48,.65-2.95,1.36-4.03,.71-1.08,1.77-1.72,2.74-1.36,.75,.28,1.36,1.1,1.79,2.07,.43,.97,.69,2.08,.94,3.19" style="fill: none; stroke: #1a78db; stroke-linecap: round; stroke-linejoin: round; stroke-width: 2.39px;"/>
    <path d="M106.39,266.6c.25-1.48,.65-2.95,1.36-4.03,.71-1.08,1.77-1.72,2.74-1.36" style="fill: none; stroke: #1a78db; stroke-linecap: round; stroke-linejoin: round; stroke-width: 2.39px;"/>
    <line x1="114.35" y1="236.97" x2="111.52" y2="269.55" style="fill: none; stroke: #1a78db; stroke-linecap: round; stroke-linejoin: round; stroke-width: 2.39px;"/>
    <line x1="153.67" y1="236.97" x2="156.5" y2="269.55" style="fill: none; stroke: #1a78db; stroke-linecap: round; stroke-linejoin: round; stroke-width: 2.39px;"/>
    <line x1="111.52" y1="269.55" x2="156.5" y2="269.55" style="fill: none; stroke: #1a78db; stroke-linecap: round; stroke-linejoin: round; stroke-width: 2.39px;"/>
    <path d="M118.05,201.94h31.92" style="fill: none; stroke: #1a78db; stroke-linecap: round; stroke-linejoin: round; stroke-width: 2.39px;"/>
    <path d="M128.61,152.05c1.59-4.48,3.18-8.95,4.77-13.43" style="fill: none; stroke: #1a78db; stroke-linecap: round; stroke-linejoin: round; stroke-width: 2.39px;"/>
    <path d="M139.61,152.05c-1.59-4.48-3.18-8.95-4.77-13.43" style="fill: none; stroke: #1a78db; stroke-linecap: round; stroke-linejoin: round; stroke-width: 2.39px;"/>
    <line x1="120.22" y1="269.55" x2="127.42" y2="237.22" style="fill: none; stroke: #1a78db; stroke-linecap: round; stroke-linejoin: round; stroke-width: 2.39px;"/>
    <line x1="134.22" y1="269.55" x2="127.03" y2="237.22" style="fill: none; stroke: #1a78db; stroke-linecap: round; stroke-linejoin: round; stroke-width: 2.39px;"/>
    <line x1="134.13" y1="269.55" x2="141.32" y2="237.22" style="fill: none; stroke: #1a78db; stroke-linecap: round; stroke-linejoin: round; stroke-width: 2.39px;"/>
    <line x1="148.13" y1="269.55" x2="140.93" y2="237.22" style="fill: none; stroke: #1a78db; stroke-linecap: round; stroke-linejoin: round; stroke-width: 2.39px;"/>
    <line x1="148.23" y1="269.55" x2="153.45" y2="236.97" style="fill: none; stroke: #1a78db; stroke-linecap: round; stroke-linejoin: round; stroke-width: 2.39px;"/>
    <line x1="119.89" y1="269.55" x2="114.67" y2="236.97" style="fill: none; stroke: #1a78db; stroke-linecap: round; stroke-linejoin: round; stroke-width: 2.39px;"/>
    <line x1="160.5" y1="122.22" x2="167.35" y2="108.16" style="fill: none; stroke: #1a78db; stroke-linecap: round; stroke-linejoin: round; stroke-width: 2.39px;"/>
    <line x1="173.83" y1="122.22" x2="166.98" y2="108.16" style="fill: none; stroke: #1a78db; stroke-linecap: round; stroke-linejoin: round; stroke-width: 2.39px;"/>
    <line x1="173.74" y1="122.22" x2="180.6" y2="108.16" style="fill: none; stroke: #1a78db; stroke-linecap: round; stroke-linejoin: round; stroke-width: 2.39px;"/>
    <line x1="187.08" y1="122.22" x2="180.22" y2="108.16" style="fill: none; stroke: #1a78db; stroke-linecap: round; stroke-linejoin: round; stroke-width: 2.39px;"/>
    <line x1="187.17" y1="122.22" x2="192.14" y2="108.04" style="fill: none; stroke: #1a78db; stroke-linecap: round; stroke-linejoin: round; stroke-width: 2.39px;"/>
    <line x1="160.19" y1="122.22" x2="155.21" y2="108.04" style="fill: none; stroke: #1a78db; stroke-linecap: round; stroke-linejoin: round; stroke-width: 2.39px;"/>
    <line x1="212.6" y1="282.28" x2="227.6" y2="241.76" style="fill: none; stroke: #1a78db; stroke-linecap: round; stroke-linejoin: round; stroke-width: 2.39px;"/>
    <line x1="236.64" y1="269.55" x2="227.08" y2="241.76" style="fill: none; stroke: #1a78db; stroke-linecap: round; stroke-linejoin: round; stroke-width: 2.39px;"/>
    <line x1="236.51" y1="269.55" x2="246.07" y2="241.76" style="fill: none; stroke: #1a78db; stroke-linecap: round; stroke-linejoin: round; stroke-width: 2.39px;"/>
    <line x1="255.11" y1="269.55" x2="245.55" y2="241.76" style="fill: none; stroke: #1a78db; stroke-linecap: round; stroke-linejoin: round; stroke-width: 2.39px;"/>
    <line x1="255.24" y1="269.55" x2="262.17" y2="241.54" style="fill: none; stroke: #1a78db; stroke-linecap: round; stroke-linejoin: round; stroke-width: 2.39px;"/>
    <path d="M156.71,269.1c1.27,1.56,2.41,3.08,3.68,4.64h-52.94c1.12-1.87,2.65-3.36,4.5-4.49" style="fill: none; stroke: #1a78db; stroke-linecap: round; stroke-linejoin: round; stroke-width: 2.39px;"/>
    <path d="M151.51,283.84h-40.53c-.03,.1-.21-.07-.11-.09,0-.23,.11-.48,.11-.71v-9" style="fill: none; stroke: #1a78db; stroke-linecap: round; stroke-linejoin: round; stroke-width: 2.39px;"/>
    <polygon points="178.37 66.04 169.11 66.04 164.32 45.07 183.15 45.07 178.37 66.04" style="fill: none; stroke: #1a78db; stroke-linecap: round; stroke-linejoin: round; stroke-width: 2.39px;"/>
    <polygon points="178.37 66.04 169.11 66.04 149.98 122.03 197.5 122.03 178.37 66.04" style="fill: none; stroke: #1a78db; stroke-linecap: round; stroke-linejoin: round; stroke-width: 2.39px;"/>
    <path d="M150.14,121.76c-2.29,1.75-4.5,3.4-6.79,5.15h60.78c-2.25-1.67-4.63-3.36-6.88-5.03" style="fill: none; stroke: #1a78db; stroke-linecap: round; stroke-linejoin: round; stroke-width: 2.39px;"/>
    <line x1="191" y1="174.76" x2="157.38" y2="174.76" style="fill: none; stroke: #1a78db; stroke-linecap: round; stroke-linejoin: round; stroke-width: 2.39px;"/>
    <line x1="190.6" y1="179.25" x2="156.98" y2="179.25" style="fill: none; stroke: #1a78db; stroke-linecap: round; stroke-linejoin: round; stroke-width: 2.39px;"/>
    <line x1="206.97" y1="174.76" x2="206.97" y2="195.24" style="fill: none; stroke: #1a78db; stroke-linecap: round; stroke-linejoin: round; stroke-width: 2.39px;"/>
    <line x1="184.62" y1="221.92" x2="184.62" y2="242.39" style="fill: none; stroke: #1a78db; stroke-linecap: round; stroke-linejoin: round; stroke-width: 2.39px;"/>
    <line x1="211.55" y1="221.92" x2="211.55" y2="242.39" style="fill: none; stroke: #1a78db; stroke-linecap: round; stroke-linejoin: round; stroke-width: 2.39px;"/>
    <line x1="150.24" y1="213.68" x2="179.21" y2="213.68" style="fill: none; stroke: #1a78db; stroke-linecap: round; stroke-linejoin: round; stroke-width: 2.39px;"/>
    <line x1="149.47" y1="230.51" x2="183.92" y2="230.51" style="fill: none; stroke: #1a78db; stroke-linecap: round; stroke-linejoin: round; stroke-width: 2.39px;"/>
    <line x1="149.47" y1="236.95" x2="183.92" y2="236.95" style="fill: none; stroke: #1a78db; stroke-linecap: round; stroke-linejoin: round; stroke-width: 2.39px;"/>
    <line x1="156.24" y1="261.47" x2="179.21" y2="261.47" style="fill: none; stroke: #1a78db; stroke-linecap: round; stroke-linejoin: round; stroke-width: 2.39px;"/>
    <line x1="223.34" y1="269.55" x2="262.17" y2="269.55" style="fill: none; stroke: #1a78db; stroke-linecap: round; stroke-linejoin: round; stroke-width: 2.39px;"/>
    <line x1="227.08" y1="274.66" x2="265.46" y2="274.66" style="fill: none; stroke: #1a78db; stroke-linecap: round; stroke-linejoin: round; stroke-width: 2.39px;"/>
    <line x1="232.67" y1="313.21" x2="265.46" y2="313.21" style="fill: none; stroke: #1a78db; stroke-linecap: round; stroke-linejoin: round; stroke-width: 2.39px;"/>
    <line x1="215.16" y1="218.03" x2="263.8" y2="218.03" style="fill: none; stroke: #1a78db; stroke-linecap: round; stroke-linejoin: round; stroke-width: 2.39px;"/>
    <line x1="221.52" y1="210.32" x2="257.06" y2="210.32" style="fill: none; stroke: #1a78db; stroke-linecap: round; stroke-linejoin: round; stroke-width: 2.39px;"/>
    <path d="M225.3,210.32v-19.71h27.98v19.71" style="fill: none; stroke: #1a78db; stroke-linecap: round; stroke-linejoin: round; stroke-width: 2.39px;"/>
    <path d="M199.95,274.66h-39.56l-9.2,9.2h45.03" style="fill: none; stroke: #1a78db; stroke-linecap: round; stroke-linejoin: round; stroke-width: 2.39px;"/>
    <line x1="156.24" y1="269.55" x2="200.42" y2="269.55" style="fill: none; stroke: #1a78db; stroke-linecap: round; stroke-linejoin: round; stroke-width: 2.39px;"/>
    <line x1="184.83" y1="221.92" x2="210.88" y2="221.92" style="fill: none; stroke: #1a78db; stroke-linecap: round; stroke-linejoin: round; stroke-width: 2.39px;"/>
    <line x1="172.43" y1="185.47" x2="176.21" y2="185.47" style="fill: none; stroke: #1a78db; stroke-linecap: round; stroke-linejoin: round; stroke-width: 2.39px;"/>
    <line x1="172.43" y1="192.46" x2="176.21" y2="192.46" style="fill: none; stroke: #1a78db; stroke-linecap: round; stroke-linejoin: round; stroke-width: 2.39px;"/>
    <line x1="172.43" y1="199.45" x2="176.21" y2="199.45" style="fill: none; stroke: #1a78db; stroke-linecap: round; stroke-linejoin: round; stroke-width: 2.39px;"/>
    <line x1="172.43" y1="206.45" x2="176.21" y2="206.45" style="fill: none; stroke: #1a78db; stroke-linecap: round; stroke-linejoin: round; stroke-width: 2.39px;"/>
    <path d="M159.7,213.51v-10.33c1.2-1.09,2.19-2.35,2.9-3.8" style="fill: none; stroke: #1a78db; stroke-linecap: round; stroke-linejoin: round; stroke-width: 2.39px;"/>
    <path d="M165.49,213.51v-10.33c-1.2-1.09-2.19-2.35-2.9-3.8" style="fill: none; stroke: #1a78db; stroke-linecap: round; stroke-linejoin: round; stroke-width: 2.39px;"/>
    <line x1="146.82" y1="144.34" x2="146.82" y2="126.91" style="fill: none; stroke: #1a78db; stroke-linecap: round; stroke-linejoin: round; stroke-width: 2.39px;"/>
    <line x1="198.88" y1="143.57" x2="198.88" y2="126.91" style="fill: none; stroke: #1a78db; stroke-linecap: round; stroke-linejoin: round; stroke-width: 2.39px;"/>
    <line x1="146.82" y1="132.83" x2="198.88" y2="132.83" style="fill: none; stroke: #1a78db; stroke-linecap: round; stroke-linejoin: round; stroke-width: 2.39px;"/>
    <path d="M157.45,243.77c-.18-1.38,.76-2.81,2.09-3.2,1.33-.39,2.9,.32,3.48,1.58,.34,.74,.37,1.59,.38,2.4l.24,13.21" style="fill: none; stroke: #1a78db; stroke-linecap: round; stroke-linejoin: round; stroke-width: 2.39px;"/>
    <path d="M157.45,292.4c-.18-1.38,.76-2.81,2.09-3.2s2.9,.32,3.48,1.58c.34,.74,.37,1.59,.38,2.4l.24,13.21" style="fill: none; stroke: #1a78db; stroke-linecap: round; stroke-linejoin: round; stroke-width: 2.39px;"/>
    <path d="M113.49,292.4c-.18-1.38,.76-2.81,2.09-3.2s2.9,.32,3.48,1.58c.34,.74,.37,1.59,.38,2.4,.08,4.4,.16,8.81,.24,13.21" style="fill: none; stroke: #1a78db; stroke-linecap: round; stroke-linejoin: round; stroke-width: 2.39px;"/>
    <path d="M169.93,292.4c-.18-1.38,.76-2.81,2.09-3.2,1.33-.39,2.9,.32,3.48,1.58,.34,.74,.37,1.59,.38,2.4l.24,13.21" style="fill: none; stroke: #1a78db; stroke-linecap: round; stroke-linejoin: round; stroke-width: 2.39px;"/>
    <path d="M217.62,234.12c-.15-1.13,.62-2.3,1.71-2.62,1.09-.32,2.37,.26,2.85,1.29,.28,.61,.3,1.3,.31,1.97,.07,3.6-.16,6.11-.16,6.11" style="fill: none; stroke: #1a78db; stroke-linecap: round; stroke-linejoin: round; stroke-width: 2.39px;"/>
    <path d="M277.16,314.87c0-1.13-.68-2.3-1.87-2.62-1.19-.32-2.59,.26-3.11,1.29-.31,.61-.33,1.3-.34,1.97-.07,3.6-.01,25.57-.01,25.57" style="fill: none; stroke: #1a78db; stroke-linecap: round; stroke-linejoin: round; stroke-width: 2.39px;"/>
    <path d="M227.14,234.12c-.15-1.13,.62-2.3,1.71-2.62,1.09-.32,2.37,.26,2.85,1.29,.28,.61,.3,1.3,.31,1.97,.07,3.6-.16,6.11-.16,6.11" style="fill: none; stroke: #1a78db; stroke-linecap: round; stroke-linejoin: round; stroke-width: 2.39px;"/>
    <path d="M236.65,234.12c-.15-1.13,.62-2.3,1.71-2.62,1.09-.32,2.37,.26,2.85,1.29,.28,.61,.3,1.3,.31,1.97,.07,3.6-.16,6.11-.16,6.11" style="fill: none; stroke: #1a78db; stroke-linecap: round; stroke-linejoin: round; stroke-width: 2.39px;"/>
    <path d="M246.17,234.12c-.15-1.13,.62-2.3,1.71-2.62,1.09-.32,2.37,.26,2.85,1.29,.28,.61,.3,1.3,.31,1.97,.07,3.6-.16,6.11-.16,6.11" style="fill: none; stroke: #1a78db; stroke-linecap: round; stroke-linejoin: round; stroke-width: 2.39px;"/>
    <path d="M255.69,234.12c-.15-1.13,.62-2.3,1.71-2.62,1.09-.32,2.37,.26,2.85,1.29,.28,.61,.3,1.3,.31,1.97,.07,3.6-.16,6.11-.16,6.11" style="fill: none; stroke: #1a78db; stroke-linecap: round; stroke-linejoin: round; stroke-width: 2.39px;"/>
    <path d="M182.94,243.77c.18-1.38-.76-2.81-2.09-3.2-1.33-.39-2.9,.32-3.48,1.58-.34,.74-.37,1.59-.38,2.4-.08,4.4-.16,8.81-.24,13.21" style="fill: none; stroke: #1a78db; stroke-linecap: round; stroke-linejoin: round; stroke-width: 2.39px;"/>
    <path d="M167.4,243.41c.4-1.12,1.48-1.96,2.66-2.09s2.41,.47,3.04,1.48" style="fill: none; stroke: #1a78db; stroke-linecap: round; stroke-linejoin: round; stroke-width: 2.39px;"/>
    <polyline points="204.83 266.25 191.27 294 182.58 299.5 224.94 299.5 218.33 294 204.77 266.25" style="fill: none; stroke: #1a78db; stroke-linecap: round; stroke-linejoin: round; stroke-width: 2.39px;"/>
    <polyline points="232.27 285.29 216.26 257.54 216.26 241.3 262.17 241.3 262.17 270.46 266.29 274.57 266.29 285.29 271.8 288.95 271.8 318.62" style="fill: none; stroke: #1a78db; stroke-linecap: round; stroke-linejoin: round; stroke-width: 2.39px;"/>
    <polyline points="211.55 227.37 267.03 227.37 262.17 241.3" style="fill: none; stroke: #1a78db; stroke-linecap: round; stroke-linejoin: round; stroke-width: 2.39px;"/>
    <polyline points="267.03 227.37 211.55 227.37 216.4 241.3" style="fill: none; stroke: #1a78db; stroke-linecap: round; stroke-linejoin: round; stroke-width: 2.39px;"/>
    <line x1="234.28" y1="197.98" x2="234.28" y2="210.32" style="fill: none; stroke: #1a78db; stroke-linecap: round; stroke-linejoin: round; stroke-width: 2.39px;"/>
    <line x1="245.38" y1="197.98" x2="245.38" y2="210.32" style="fill: none; stroke: #1a78db; stroke-linecap: round; stroke-linejoin: round; stroke-width: 2.39px;"/>
    <polyline points="225.3 190.61 221.58 182.19 239.81 182.19" style="fill: none; stroke: #1a78db; stroke-linecap: round; stroke-linejoin: round; stroke-width: 2.39px;"/>
    <polyline points="253.19 190.61 256.91 182.19 238.68 182.19" style="fill: none; stroke: #1a78db; stroke-linecap: round; stroke-linejoin: round; stroke-width: 2.39px;"/>
    <polyline points="266.29 285.29 246.45 285.29 228.79 279.26" style="fill: none; stroke: #1a78db; stroke-linecap: round; stroke-linejoin: round; stroke-width: 2.39px;"/>
    <polyline points="246.45 285.29 224.94 299.5 224.94 341.08" style="fill: none; stroke: #1a78db; stroke-linecap: round; stroke-linejoin: round; stroke-width: 2.39px;"/>
    <line x1="271.8" y1="288.95" x2="240.91" y2="288.95" style="fill: none; stroke: #1a78db; stroke-linecap: round; stroke-linejoin: round; stroke-width: 2.39px;"/>
    <line x1="215.61" y1="299.58" x2="215.61" y2="341.08" style="fill: none; stroke: #1a78db; stroke-linecap: round; stroke-linejoin: round; stroke-width: 2.39px;"/>
    <line x1="182.58" y1="299.5" x2="182.58" y2="341.08" style="fill: none; stroke: #1a78db; stroke-linecap: round; stroke-linejoin: round; stroke-width: 2.39px;"/>
    <polyline points="187.32 341.08 204.38 319.85 210.32 319.85" style="fill: none; stroke: #1a78db; stroke-linecap: round; stroke-linejoin: round; stroke-width: 2.39px;"/>
    <line x1="232.67" y1="294.39" x2="232.67" y2="341.08" style="fill: none; stroke: #1a78db; stroke-linecap: round; stroke-linejoin: round; stroke-width: 2.39px;"/>
    <line x1="246.27" y1="288.95" x2="246.27" y2="341.08" style="fill: none; stroke: #1a78db; stroke-linecap: round; stroke-linejoin: round; stroke-width: 2.39px;"/>
    <line x1="266.2" y1="288.95" x2="266.2" y2="341.08" style="fill: none; stroke: #1a78db; stroke-linecap: round; stroke-linejoin: round; stroke-width: 2.39px;"/>
    <polyline points="271.8 296.47 277.26 301.93 277.26 309.19 284.59 309.19 284.59 341.08" style="fill: none; stroke: #1a78db; stroke-linecap: round; stroke-linejoin: round; stroke-width: 2.39px;"/>
    <line x1="277.18" y1="314.87" x2="277.18" y2="341.08" style="fill: none; stroke: #1a78db; stroke-linecap: round; stroke-linejoin: round; stroke-width: 2.39px;"/>
    <path d="M193.75,309.5c0-1.36-.82-2.77-2.25-3.16-1.44-.38-3.12,.32-3.75,1.56-.37,.73-.39,1.56-.41,2.37-.09,4.34-.02,30.81-.02,30.81" style="fill: none; stroke: #1a78db; stroke-linecap: round; stroke-linejoin: round; stroke-width: 2.39px;"/>
    <path d="M204.38,309.5c0-1.36,.82-2.77,2.25-3.16,1.44-.38,3.12,.32,3.75,1.56,.37,.73,.39,1.56,.41,2.37,.09,4.34,.02,30.81,.02,30.81" style="fill: none; stroke: #1a78db; stroke-linecap: round; stroke-linejoin: round; stroke-width: 2.39px;"/>
    <path d="M220.52,309.5c0-1.36-.64-2.77-1.76-3.16-1.12-.38-2.44,.32-2.94,1.56-.29,.73-.31,1.56-.32,2.37-.07,4.34-.01,30.81-.01,30.81" style="fill: none; stroke: #1a78db; stroke-linecap: round; stroke-linejoin: round; stroke-width: 2.39px;"/>
    <line x1="210.35" y1="326" x2="199.53" y2="326" style="fill: none; stroke: #1a78db; stroke-linecap: round; stroke-linejoin: round; stroke-width: 2.39px;"/>
    <line x1="210.59" y1="330.99" x2="196.38" y2="330.99" style="fill: none; stroke: #1a78db; stroke-linecap: round; stroke-linejoin: round; stroke-width: 2.39px;"/>
    <line x1="210.59" y1="336.38" x2="192.66" y2="336.38" style="fill: none; stroke: #1a78db; stroke-linecap: round; stroke-linejoin: round; stroke-width: 2.39px;"/>
    <path d="M191.27,294h27.06l13.94-8.71" style="fill: none; stroke: #1a78db; stroke-linecap: round; stroke-linejoin: round; stroke-width: 2.39px;"/>
    <polyline points="151.51 283.84 151.51 306.91 182.51 306.91" style="fill: none; stroke: #1a78db; stroke-linecap: round; stroke-linejoin: round; stroke-width: 2.39px;"/>
    <line x1="124.95" y1="307.19" x2="111.07" y2="307.19" style="fill: none; stroke: #1a78db; stroke-linecap: round; stroke-linejoin: round; stroke-width: 2.39px;"/>
    <path d="M124.79,314.8v-17.61s-.05,0-.08,0c-1.82-1.83-2.04-4.72-1.13-7.13,.91-2.42,2.76-4.35,4.7-6.06" style="fill: none; stroke: #1a78db; stroke-linecap: round; stroke-linejoin: round; stroke-width: 2.39px;"/>
    <path d="M128.38,290.01c-.17-.72-.21-1.5,.03-2.2,.24-.71,.77-1.33,1.48-1.56s1.57,.01,1.97,.64c.25,.39,.3,.88,.24,1.34-.11,.82-.58,1.59-1.27,2.05,.5,1.46,1.05,2.97,1.55,4.43,1.38,.34,2.77,.91,3.99,1.64,.85-.53,1.96-.96,2.93-1.22-.47-.99-.88-1.98-.54-3.02,.32-.95,1.34-1.59,2.34-1.52,1,.07,1.91,.8,2.26,1.74,.35,.94,.16,2.04-.42,2.86,1.66,.8,2.77,2.19,3.38,3.92,.62,1.73,.77,3.59,.92,5.42,.95-.47,2.12-.24,2.87,.51,.75,.75,1.04,1.89,.91,2.94-.13,1.06-3.84,6.18-4.69,6.82" style="fill: none; stroke: #1a78db; stroke-linecap: round; stroke-linejoin: round; stroke-width: 2.39px;"/>
    <path d="M124.59,307.24c2.62-1.11,5.03-2.72,7.06-4.71-.17-1.32-.14-2.43-.03-3.76,1.41,.63,2.84,1.27,4.26,1.89,.17,1.57,.38,3.08,.56,4.64" style="fill: none; stroke: #1a78db; stroke-linecap: round; stroke-linejoin: round; stroke-width: 2.39px;"/>
    <path d="M134.35,315.27v-5.5c-1.42-1.7-2.63-3.72-3.38-5.81" style="fill: none; stroke: #1a78db; stroke-linecap: round; stroke-linejoin: round; stroke-width: 2.39px;"/>
    <path d="M143.59,314.79c-.77-3.04-6.12-4.7-9.24-5.02" style="fill: none; stroke: #1a78db; stroke-linecap: round; stroke-linejoin: round; stroke-width: 2.39px;"/>
    <path d="M143.2,300.69c.03,.35,.05,.69,.08,1.04v5.1" style="fill: none; stroke: #1a78db; stroke-linecap: round; stroke-linejoin: round; stroke-width: 2.39px;"/>
    <rect x="124.79" y="315.27" width="24.49" height="25.81" style="fill: none; stroke: #1a78db; stroke-linecap: round; stroke-linejoin: round; stroke-width: 2.39px;"/>
    <rect x="131.78" y="323.59" width="10.5" height="9.18" transform="translate(465.21 191.15) rotate(90)" style="fill: none; stroke: #1a78db; stroke-linecap: round; stroke-linejoin: round; stroke-width: 2.39px;"/>
  </g>
</svg>